<svg width="312" height="53" viewBox="0 0 312 53" fill="none" xmlns="http://www.w3.org/2000/svg">
<path d="M286.711 53C278.44 53 271.096 48.8386 266.482 42.4047C265.429 40.9369 263.794 39.9396 261.988 39.9396H254.248C252.217 39.9396 250.434 41.2001 249.376 42.9332C245.687 48.9704 239.035 53 231.443 53H21C9.40201 53 0 43.598 0 32V21C0 9.40202 9.40204 0 21 0H231.443C239.814 0 247.041 4.8981 250.414 11.9847C251.389 14.0311 253.316 15.5882 255.583 15.5882H260.372C262.367 15.5882 264.135 14.3783 265.143 12.6567C269.591 5.06415 277.587 0 286.711 0C300.678 0 312 11.8645 312 26.5C312 41.1355 300.678 53 286.711 53Z" fill="#1E1E1E"/>
</svg>
