<svg xmlns="http://www.w3.org/2000/svg" aria-hidden="true" style="position:absolute;width:0;height:0;overflow:hidden"><defs>
<symbol id="icon-viber" viewBox="0 0 33 32"><path d="M11.191 8.269a1.099 1.099 0 0 0-.716.141h-.019c-.5.293-.951.663-1.335 1.097-.32.369-.493.743-.539 1.103-.027.213-.008.429.055.633l.024.013c.36 1.057.829 2.075 1.403 3.032a17.872 17.872 0 0 0 2.707 3.7l.032.045.051.037.031.036.037.032a18.163 18.163 0 0 0 3.709 2.72c1.54.839 2.475 1.235 3.036 1.4v.008c.164.051.313.073.464.073a2.132 2.132 0 0 0 1.285-.552c.433-.384.8-.836 1.085-1.339v-.009c.268-.507.177-.984-.209-1.308a16.046 16.046 0 0 0-2.508-1.8c-.597-.324-1.204-.128-1.449.2l-.524.661c-.269.328-.757.283-.757.283l-.013.008c-3.641-.929-4.613-4.616-4.613-4.616s-.045-.501.292-.757l.656-.528c.315-.256.533-.861.196-1.459a16.06 16.06 0 0 0-1.796-2.507 1.003 1.003 0 0 0-.587-.351zm6.154-1.602a.665.665 0 1 0 0 1.332c1.685 0 3.085.551 4.193 1.607a5.91 5.91 0 0 1 1.304 2.011c.292.751.425 1.552.391 2.355-.007.177.056.349.175.48s.286.208.463.215c.177.007.349-.056.48-.175s.208-.286.215-.463a7.2 7.2 0 0 0-2.086-5.365l-.013-.013c-1.375-1.313-3.113-1.983-5.121-1.983z"/><path d="M17.298 8.859a.665.665 0 1 0 0 1.332h.023c1.216.087 2.101.492 2.721 1.157.636.685.965 1.537.94 2.591a.667.667 0 1 0 1.333.031c.032-1.383-.413-2.576-1.296-3.528v-.003c-.903-.968-2.141-1.48-3.632-1.58l-.023-.003-.067.001z"/><path d="M17.273 11.092a.656.656 0 0 0-.496.161.655.655 0 0 0-.229.469.673.673 0 0 0 .178.49.666.666 0 0 0 .477.211c.557.029.913.197 1.137.423.225.227.393.591.424 1.16a.66.66 0 0 0 .212.475.682.682 0 0 0 .49.178.657.657 0 0 0 .468-.229.672.672 0 0 0 .161-.495c-.043-.8-.293-1.507-.807-2.027-.516-.52-1.219-.773-2.016-.816z"/><path d="M9.994 3.179a29.544 29.544 0 0 1 12.885 0l.452.1a6.877 6.877 0 0 1 5.163 5.018 26.264 26.264 0 0 1 0 12.933 6.885 6.885 0 0 1-5.163 5.018l-.453.1a29.614 29.614 0 0 1-8.103.665l-3.537 3.165a1.001 1.001 0 0 1-1.432-.101.996.996 0 0 1-.221-.479L9 26.102a6.883 6.883 0 0 1-4.62-4.872 26.264 26.264 0 0 1 0-12.933 6.881 6.881 0 0 1 5.163-5.018l.452-.1zm12.449 1.95a27.54 27.54 0 0 0-12.013 0l-.453.101a4.876 4.876 0 0 0-3.658 3.557 24.266 24.266 0 0 0 0 11.949 4.878 4.878 0 0 0 3.66 3.557l.12.027a1.002 1.002 0 0 1 .768.811l.392 2.344 2.496-2.233a.998.998 0 0 1 .737-.253 27.629 27.629 0 0 0 7.952-.593l.452-.101a4.875 4.875 0 0 0 3.66-3.557 24.29 24.29 0 0 0 0-11.949 4.878 4.878 0 0 0-3.66-3.557l-.452-.101z"/></symbol>
<symbol id="icon-phone" viewBox="0 0 32 32"><path d="m5.365 12-.032-.092C4.613 9.845 4 7.027 4 5.333 4 4.6 4.6 4 5.333 4h4A2.668 2.668 0 0 1 12 6.667v2.667a2.668 2.668 0 0 1-2.667 2.667H8.217a21.41 21.41 0 0 0 11.782 11.782v-1.116A2.668 2.668 0 0 1 22.666 20h2.667A2.668 2.668 0 0 1 28 22.667v4c0 .6-.733 1.333-1.333 1.333-2.3 0-4.587-.608-6.667-1.333C13.181 24.224 7.776 18.819 5.365 12z"/></symbol>
<symbol id="icon-telegram" viewBox="0 0 32 32"><path d="M26.115 5.712a1.94 1.94 0 0 1 1.948.264 1.94 1.94 0 0 1 .711 1.832L25.85 25.546c-.284 1.711-2.161 2.692-3.73 1.84-1.313-.713-3.262-1.812-5.016-2.958-.877-.574-3.563-2.411-3.232-3.719.284-1.118 4.796-5.319 7.375-7.816 1.012-.981.551-1.547-.645-.645-2.968 2.241-7.734 5.649-9.309 6.608-1.39.846-2.115.99-2.981.846-1.581-.263-3.047-.671-4.243-1.167-1.617-.671-1.538-2.893-.001-3.541L26.116 5.71z"/></symbol>
<symbol id="icon-star" viewBox="0 0 33 32"><path stroke="#f6ca47" stroke-width=".643" d="m16.792.764.003 14.277 7.049-12.654.562.313-7.015 12.607 12.46-8.103.351.539-12.399 8.073 14.983-1.711.073.639-14.965 1.716L31.98 21.5l-.216.606-14.132-5.051 9.996 10.644-.469.44-10.051-10.692 3.616 13.846-.622.163-3.631-13.877-3.63 13.877-.622-.163 3.615-13.846-10.05 10.692-.469-.439v-.001l9.995-10.644-14.131 5.051-.216-.606 14.085-5.04L.084 14.744l.037-.32.036-.319 14.982 1.711L2.741 7.743l.351-.539 12.459 8.103L8.537 2.7l.562-.313 7.048 12.654.004-14.277h.643z"/></symbol></defs></svg>