<svg xmlns="http://www.w3.org/2000/svg" aria-hidden="true" style="position:absolute;width:0;height:0;overflow:hidden"><defs>
<symbol id="icon-instagram" viewBox="0 0 32 32"><path fill="#f8f8f8" d="M17.37 2.667c1.5.004 2.261.012 2.919.031l.259.009c.299.011.593.024.949.04 1.419.067 2.387.291 3.236.62a6.51 6.51 0 0 1 2.363 1.537 6.53 6.53 0 0 1 1.537 2.363c.329.849.553 1.817.62 3.237.016.355.029.649.04.949l.008.259c.02.656.028 1.417.031 2.917l.001.995v1.747c.003.973-.007 1.945-.031 2.917l-.008.259c-.011.3-.024.595-.04.949-.067 1.42-.293 2.387-.621 3.237a6.538 6.538 0 0 1-1.537 2.363 6.53 6.53 0 0 1-2.363 1.537c-.849.329-1.817.553-3.236.62l-.949.04-.259.008c-.657.019-1.419.028-2.919.031l-2.74.001c-.973.003-1.946-.007-2.919-.031l-.259-.008a98.923 98.923 0 0 1-.949-.041c-1.419-.067-2.387-.291-3.237-.62a6.535 6.535 0 0 1-2.361-1.537 6.534 6.534 0 0 1-1.539-2.363c-.329-.849-.553-1.817-.62-3.237l-.04-.949-.007-.259c-.025-.972-.036-1.945-.033-2.917V14.63c-.004-.973.006-1.945.029-2.917l.009-.259c.011-.3.024-.595.04-.949.067-1.42.291-2.387.62-3.237a6.552 6.552 0 0 1 1.541-2.363 6.526 6.526 0 0 1 2.36-1.537c.851-.329 1.817-.553 3.237-.62.355-.016.651-.029.949-.04l.259-.008a105.07 105.07 0 0 1 2.917-.031l2.741-.001zm-1.371 6.666a6.67 6.67 0 0 0-4.714 11.381 6.67 6.67 0 0 0 9.428 0 6.668 6.668 0 0 0-4.714-11.381zm0 2.667a4.005 4.005 0 0 1 2.829 1.171A3.996 3.996 0 0 1 20 16a4.001 4.001 0 0 1-4 4.001 4.003 4.003 0 0 1-4-4 4.003 4.003 0 0 1 4-4zm7.002-4.667a1.663 1.663 0 0 0-1.179 2.844 1.67 1.67 0 0 0 2.846-1.178 1.667 1.667 0 0 0-1.667-1.666z" style="fill:var(--color1, #f8f8f8)"/></symbol>
<symbol id="icon-youtube" viewBox="0 0 32 32"><path fill="#f8f8f8" d="M16.325 5.333c.712.004 2.493.021 4.387.097l.672.029c1.905.089 3.809.244 4.755.507 1.26.355 2.249 1.387 2.584 2.696.533 2.08.6 6.136.608 7.119l.001.203v.232c-.009.983-.076 5.04-.609 7.119-.339 1.313-1.329 2.347-2.584 2.696-.945.263-2.849.417-4.755.507l-.672.031a133.42 133.42 0 0 1-4.387.096l-.313.001h-.34c-1.507-.009-7.808-.077-9.813-.635-1.259-.355-2.249-1.387-2.584-2.696-.533-2.08-.6-6.136-.608-7.119v-.435c.008-.983.075-5.04.608-7.119.339-1.313 1.329-2.347 2.585-2.695 2.004-.559 8.307-.627 9.813-.635h.652zm-2.993 6v9.333l8-4.667-8-4.667z" style="fill:var(--color1, #f8f8f8)"/></symbol>
<symbol id="icon-tiktok" viewBox="0 0 32 32"><path fill="#f8f8f8" d="M21.536 2.606A2.287 2.287 0 0 0 17.635.99a2.288 2.288 0 0 0-.67 1.616v19.611a4.325 4.325 0 0 1-8.57.848 4.323 4.323 0 0 1 1.84-4.442 4.331 4.331 0 0 1 2.404-.729 2.287 2.287 0 0 0 1.616-3.901 2.287 2.287 0 0 0-1.616-.669 8.9 8.9 0 0 0-6.292 15.19 8.905 8.905 0 0 0 9.697 1.929 8.905 8.905 0 0 0 5.493-8.221V12.078a12.045 12.045 0 0 0 7.515 2.619 2.287 2.287 0 0 0 1.616-3.901 2.287 2.287 0 0 0-1.616-.669c-1.993-.001-3.904-.793-5.313-2.203s-2.201-3.32-2.203-5.313z" style="fill:var(--color1, #f8f8f8)"/></symbol>
<symbol id="icon-facebook" viewBox="0 0 32 32"><path fill="#f8f8f8" d="M17.807 29.334V17.17h4.083l.612-4.74h-4.693V9.403c0-1.373.38-2.308 2.348-2.308l2.511-.001v-4.24a33.347 33.347 0 0 0-3.657-.187c-3.62 0-6.097 2.209-6.097 6.267v3.496H8.821v4.74h4.093v12.164h4.895z" style="fill:var(--color1, #f8f8f8)"/>
</symbol></defs></svg>