<svg xmlns="http://www.w3.org/2000/svg" aria-hidden="true" style="position:absolute;width:0;height:0;overflow:hidden">
<defs>
<symbol id="close-btn-icon" viewBox="0 0 32 32"><path fill="#f5f5f5" d="M30.282.183a1.11 1.11 0 0 1 1.394 1.71L17.568 16.001l14.108 14.108a1.109 1.109 0 1 1-1.568 1.568L16 17.569 1.892 31.677A1.109 1.109 0 0 1 .324 30.11l14.108-14.108L.324 1.894A1.108 1.108 0 1 1 1.892.327L16 14.435 30.108.327c.054-.054.113-.101.174-.142z" style="fill:var(--color2, #f5f5f5)"/></symbol>
<symbol id="mobile-menu-icon" viewBox="0 0 32 32"><path fill="#f6f7f8" d="M5 14a.997.997 0 0 1-1-1V5.002a.997.997 0 0 1 1-1h8a.997.997 0 0 1 1 1V13a.997.997 0 0 1-1 1H5zm14 0a.997.997 0 0 1-1-1V5.002a.997.997 0 0 1 1-1h7.998a.997.997 0 0 1 1 1V13a.997.997 0 0 1-1 1H19zM5 28a.997.997 0 0 1-1-1v-8a.997.997 0 0 1 1-1h8a.997.997 0 0 1 1 1v8a.997.997 0 0 1-1 1H5zm14 0a.997.997 0 0 1-1-1v-8a.997.997 0 0 1 1-1h7.998a.997.997 0 0 1 1 1v8a.997.997 0 0 1-1 1H19z" style="fill:var(--color3, #f6f7f8)"/></symbol>
<symbol id="logo-icon" viewBox="0 0 120 32"><path fill="#ffc300" d="M16.282 12.956c-.098.041-.597.231-1.108.423s-1.646.64-2.521.997l-1.591.649.046 14.826.714.303c1.172.498 4.616 1.818 4.744 1.818.098 0 .118-1.667.118-9.55 0-7.586-.023-9.549-.112-9.544a1.116 1.116 0 0 0-.29.08zm4.059 7.332h3.212v-3.07h-3.212v3.07zm4.015-.01.379.052c.209.029.941.041 1.628.027l1.249-.026.049-3.112h-3.305v3.059zm-4.015 2.304c0 1.143.028 1.536.111 1.566.061.022.784.048 1.606.057l1.494.017v-3.165H20.34v1.526zm4.015 1.633 3.256-.046v-3.07l-3.256-.046v3.163z" style="fill:var(--color5, #ffc300)"/><path fill="#a0291a" d="M17.976.71c-.687.389-2.273 1.276-3.524 1.972s-2.769 1.546-3.373 1.891c-.604.344-1.116.626-1.137.626s-.039-.844-.039-1.876-.024-1.876-.053-1.876c-.053 0-2.766 1.332-3.715 1.824l-.512.265-.003 4.093-.289.18c-.159.099-.891.517-1.627.929s-1.439.813-1.561.891-.655.384-1.182.68l-.959.539v21.04l1.048.001c.577.001 1.962.025 3.078.055l2.03.054.009-8.646c.005-4.755.015-8.721.022-8.812.013-.163.913-.701 4.741-2.833.736-.41 2.522-1.421 3.97-2.248 3.789-2.163 4.343-2.471 4.446-2.471.051 0 .286.111.522.248s1.132.647 1.991 1.135l3.524 2.002c2.251 1.279 5.607 3.171 6.488 3.659l.6.332.003 17.635 2.342-.056c1.288-.031 2.693-.056 3.122-.056h.781l-.003-21.019-.467-.263-2.162-1.228A1636.432 1636.432 0 0 0 21.112.957C20.481.608 19.839.25 19.685.16s-.32-.162-.369-.161c-.049.001-.651.321-1.338.71z" style="fill:var(--color4, #a0291a)"/><path fill="#f8f8f8" d="M46.825 19c.72 0 1.323.07 1.809.211.494.141.862.372 1.105.695.251.323.376.753.376 1.291 0 .348-.065.658-.194.931a1.687 1.687 0 0 1-.559.67 2.214 2.214 0 0 1-.898.36v.062c.364.058.692.165.983.323.299.157.534.381.704.67s.255.666.255 1.13c0 .538-.121.997-.364 1.378a2.318 2.318 0 0 1-1.044.856c-.445.19-.979.285-1.603.285h-3.048V19h2.477zm.218 3.773c.745 0 1.255-.12 1.53-.36.275-.248.413-.612.413-1.092 0-.488-.17-.836-.51-1.043-.332-.215-.866-.323-1.603-.323H45.44v2.818h1.603zm-1.602.931v3.215h1.748c.769 0 1.303-.153 1.603-.459s.449-.708.449-1.204c0-.314-.069-.588-.206-.819-.129-.232-.352-.41-.668-.534-.308-.132-.728-.199-1.263-.199h-1.663zM54.685 27.862h-3.133v-.645l1.02-.236v-7.088l-1.02-.248V19h3.133v.645l-1.02.248v7.087l1.02.236v.645zM62.685 27.862h-1.311l-3.922-4.493v4.493h-1.093V19h1.093v4.295L61.277 19h1.238l-3.764 4.307 3.934 4.555zM70.494 27.862h-1.093v-4.133h-4.444v4.133h-1.093V19h1.093v3.749h4.444V19h1.093v8.862zM80.428 23.419c0 .687-.085 1.312-.255 1.874a4.076 4.076 0 0 1-.765 1.44 3.24 3.24 0 0 1-1.251.931c-.494.215-1.068.323-1.724.323-.68 0-1.271-.108-1.773-.323a3.407 3.407 0 0 1-1.251-.931c-.332-.405-.579-.89-.741-1.452s-.243-1.187-.243-1.874c0-.91.146-1.705.437-2.383s.733-1.208 1.323-1.589c.599-.381 1.352-.571 2.258-.571.866 0 1.595.19 2.186.571.591.372 1.036.902 1.336 1.589.308.679.461 1.477.461 2.396zm-6.848 0c0 .745.101 1.386.304 1.924s.514.952.935 1.241c.429.29.967.434 1.615.434.656 0 1.19-.145 1.603-.434.421-.29.733-.703.935-1.241s.303-1.179.303-1.924c0-1.117-.227-1.99-.68-2.619-.453-.637-1.17-.956-2.149-.956-.656 0-1.198.145-1.627.434-.421.281-.733.691-.935 1.229-.202.53-.304 1.167-.304 1.912zM84.165 27.862v-8.689h4.695c1.167 0 2.064.279 2.691.838.627.552.941 1.379.941 2.483 0 1.11-.313 1.941-.941 2.493-.621.552-1.514.828-2.681.828h-2.165v2.048h-2.54zm2.54-4.209h1.952c.398 0 .709-.096.931-.29.229-.2.344-.49.344-.869s-.115-.665-.344-.859c-.222-.2-.533-.3-.931-.3h-1.952v2.317zM101.752 27.862h-2.499l-1.235-2.358H95.69v2.358h-2.539v-8.689h4.725c1.18 0 2.077.272 2.691.817.621.538.931 1.348.931 2.431 0 1.124-.435 1.972-1.305 2.545l1.558 2.896zm-6.06-6.526v2.214h2.024c.405 0 .712-.093.921-.279.216-.193.323-.469.323-.827s-.108-.631-.323-.817c-.21-.193-.516-.29-.921-.29h-2.024zM110.18 26.88c-.87.848-2.02 1.272-3.45 1.272s-2.584-.424-3.46-1.272c-.87-.855-1.305-1.976-1.305-3.362s.435-2.503 1.305-3.351c.877-.855 2.03-1.283 3.46-1.283s2.58.428 3.45 1.283c.877.848 1.315 1.965 1.315 3.351s-.438 2.507-1.315 3.362zm-5.058-1.624c.431.434.968.652 1.608.652s1.174-.217 1.599-.652c.431-.434.647-1.014.647-1.738s-.216-1.303-.647-1.738c-.425-.434-.958-.652-1.599-.652s-1.177.217-1.608.652c-.425.434-.637 1.014-.637 1.738s.212 1.303.637 1.738zM112.112 27.862v-8.689h7.467v2.172h-4.927v1.469h4.695v1.893h-4.695v3.155h-2.54z" style="fill:var(--color1, #f8f8f8)"/></symbol>
<symbol id="icon-heart" viewBox="0 0 38 32"><path fill="#f6ca47" d="M17.779 31.449a1.883 1.883 0 0 0 2.664-.003l14.602-14.671a9.812 9.812 0 0 0 1.896-2.67l-17.83-3.131-17.862 3.134a9.812 9.812 0 0 0 1.934 2.746L17.779 31.45z" style="fill:var(--color1, #f6ca47)"/><path fill="#5993ee" d="M35.042 2.875c-3.833-3.833-10.07-3.833-13.903 0l-2.028 2.103-2.028-2.028C13.25-.883 7.013-.883 3.18 2.95.168 5.962-.474 10.46 1.249 14.108h35.689c1.768-3.661 1.138-8.199-1.896-11.233z" style="fill:var(--color2, #5993ee)"/></symbol>
<symbol id="icon-viber" viewBox="0 0 33 32"><path d="M11.191 8.269a1.099 1.099 0 0 0-.716.141h-.019c-.5.293-.951.663-1.335 1.097-.32.369-.493.743-.539 1.103-.027.213-.008.429.055.633l.024.013c.36 1.057.829 2.075 1.403 3.032a17.872 17.872 0 0 0 2.707 3.7l.032.045.051.037.031.036.037.032a18.163 18.163 0 0 0 3.709 2.72c1.54.839 2.475 1.235 3.036 1.4v.008c.164.051.313.073.464.073a2.132 2.132 0 0 0 1.285-.552c.433-.384.8-.836 1.085-1.339v-.009c.268-.507.177-.984-.209-1.308a16.046 16.046 0 0 0-2.508-1.8c-.597-.324-1.204-.128-1.449.2l-.524.661c-.269.328-.757.283-.757.283l-.013.008c-3.641-.929-4.613-4.616-4.613-4.616s-.045-.501.292-.757l.656-.528c.315-.256.533-.861.196-1.459a16.06 16.06 0 0 0-1.796-2.507 1.003 1.003 0 0 0-.587-.351zm6.154-1.602a.665.665 0 1 0 0 1.332c1.685 0 3.085.551 4.193 1.607a5.91 5.91 0 0 1 1.304 2.011c.292.751.425 1.552.391 2.355-.007.177.056.349.175.48s.286.208.463.215c.177.007.349-.056.48-.175s.208-.286.215-.463a7.2 7.2 0 0 0-2.086-5.365l-.013-.013c-1.375-1.313-3.113-1.983-5.121-1.983z"/><path d="M17.298 8.859a.665.665 0 1 0 0 1.332h.023c1.216.087 2.101.492 2.721 1.157.636.685.965 1.537.94 2.591a.667.667 0 1 0 1.333.031c.032-1.383-.413-2.576-1.296-3.528v-.003c-.903-.968-2.141-1.48-3.632-1.58l-.023-.003-.067.001z"/><path d="M17.273 11.092a.656.656 0 0 0-.496.161.655.655 0 0 0-.229.469.673.673 0 0 0 .178.49.666.666 0 0 0 .477.211c.557.029.913.197 1.137.423.225.227.393.591.424 1.16a.66.66 0 0 0 .212.475.682.682 0 0 0 .49.178.657.657 0 0 0 .468-.229.672.672 0 0 0 .161-.495c-.043-.8-.293-1.507-.807-2.027-.516-.52-1.219-.773-2.016-.816z"/><path d="M9.994 3.179a29.544 29.544 0 0 1 12.885 0l.452.1a6.877 6.877 0 0 1 5.163 5.018 26.264 26.264 0 0 1 0 12.933 6.885 6.885 0 0 1-5.163 5.018l-.453.1a29.614 29.614 0 0 1-8.103.665l-3.537 3.165a1.001 1.001 0 0 1-1.432-.101.996.996 0 0 1-.221-.479L9 26.102a6.883 6.883 0 0 1-4.62-4.872 26.264 26.264 0 0 1 0-12.933 6.881 6.881 0 0 1 5.163-5.018l.452-.1zm12.449 1.95a27.54 27.54 0 0 0-12.013 0l-.453.101a4.876 4.876 0 0 0-3.658 3.557 24.266 24.266 0 0 0 0 11.949 4.878 4.878 0 0 0 3.66 3.557l.12.027a1.002 1.002 0 0 1 .768.811l.392 2.344 2.496-2.233a.998.998 0 0 1 .737-.253 27.629 27.629 0 0 0 7.952-.593l.452-.101a4.875 4.875 0 0 0 3.66-3.557 24.29 24.29 0 0 0 0-11.949 4.878 4.878 0 0 0-3.66-3.557l-.452-.101z"/></symbol>
<symbol id="icon-phone" viewBox="0 0 32 32"><path d="m5.365 12-.032-.092C4.613 9.845 4 7.027 4 5.333 4 4.6 4.6 4 5.333 4h4A2.668 2.668 0 0 1 12 6.667v2.667a2.668 2.668 0 0 1-2.667 2.667H8.217a21.41 21.41 0 0 0 11.782 11.782v-1.116A2.668 2.668 0 0 1 22.666 20h2.667A2.668 2.668 0 0 1 28 22.667v4c0 .6-.733 1.333-1.333 1.333-2.3 0-4.587-.608-6.667-1.333C13.181 24.224 7.776 18.819 5.365 12z"/></symbol>
<symbol id="icon-telegram" viewBox="0 0 32 32"><path d="M26.115 5.712a1.94 1.94 0 0 1 1.948.264 1.94 1.94 0 0 1 .711 1.832L25.85 25.546c-.284 1.711-2.161 2.692-3.73 1.84-1.313-.713-3.262-1.812-5.016-2.958-.877-.574-3.563-2.411-3.232-3.719.284-1.118 4.796-5.319 7.375-7.816 1.012-.981.551-1.547-.645-.645-2.968 2.241-7.734 5.649-9.309 6.608-1.39.846-2.115.99-2.981.846-1.581-.263-3.047-.671-4.243-1.167-1.617-.671-1.538-2.893-.001-3.541L26.116 5.71z"/></symbol>
<symbol id="icon-star" viewBox="0 0 33 32"><path stroke="#f6ca47" stroke-width=".643" d="m16.792.764.003 14.277 7.049-12.654.562.313-7.015 12.607 12.46-8.103.351.539-12.399 8.073 14.983-1.711.073.639-14.965 1.716L31.98 21.5l-.216.606-14.132-5.051 9.996 10.644-.469.44-10.051-10.692 3.616 13.846-.622.163-3.631-13.877-3.63 13.877-.622-.163 3.615-13.846-10.05 10.692-.469-.439v-.001l9.995-10.644-14.131 5.051-.216-.606 14.085-5.04L.084 14.744l.037-.32.036-.319 14.982 1.711L2.741 7.743l.351-.539 12.459 8.103L8.537 2.7l.562-.313 7.048 12.654.004-14.277h.643z"/></symbol>
<symbol id="icon-office" viewBox="0 0 32 32"><path fill="none" stroke="#f8f8f8" stroke-linecap="round" stroke-linejoin="round" stroke-width="1.846" d="M19.073 2.328a3.58 3.58 0 0 1 3.266 3.33c.159 2.213.327 5.657.327 10.342 0 5.737-.126 9.891-.216 12.121A1.963 1.963 0 0 1 20.481 30H4.192a1.966 1.966 0 0 1-1.973-1.887C2.129 25.83 2 21.588 2 16c0-4.572.172-8.055.333-10.311a3.612 3.612 0 0 1 3.289-3.363 74.477 74.477 0 0 1 6.711-.325c2.554 0 4.96.163 6.74.328z" style="stroke:var(--color1, #f8f8f8)"/><path fill="none" stroke="#f8f8f8" stroke-linecap="round" stroke-linejoin="round" stroke-width="1.846" d="M20.482 30h7.38a1.972 1.972 0 0 0 1.979-1.891c.071-1.792.16-4.667.16-7.776 0-2.375-.104-4.517-.217-6.135-.125-1.813-1.531-3.239-3.345-3.365a69.662 69.662 0 0 0-3.85-.161M15.611 30l.004-.07c.029-.733.052-1.785.052-3.263s-.023-2.53-.052-3.263c-.039-.992-.593-1.831-1.577-1.967a12.619 12.619 0 0 0-1.705-.103c-.57-.004-1.139.031-1.705.103-.983.136-1.537.975-1.577 1.967a84.33 84.33 0 0 0-.052 3.263A84.17 84.17 0 0 0 9.055 30M8.667 8v1.333m0 6v1.333M16 8v1.333m0 6v1.333" style="stroke:var(--color1, #f8f8f8)"/></symbol>
<symbol id="icon-mail" viewBox="0 0 38 32"><path fill="none" stroke="#f8f8f8" stroke-width="2.286" d="M1.143 15.365c0-6.704 0-10.057 2.084-12.139s5.435-2.084 12.139-2.084h7.111c6.704 0 10.057 0 12.139 2.084S36.7 8.661 36.7 15.365s0 10.057-2.084 12.139-5.435 2.084-12.139 2.084h-7.111c-6.704 0-10.057 0-12.139-2.084s-2.084-5.435-2.084-12.139z" style="stroke:var(--color1, #f8f8f8)"/><path fill="none" stroke="#f8f8f8" stroke-linecap="round" stroke-width="2.286" d="m8.254 8.254 3.838 3.2c3.266 2.72 4.898 4.08 6.828 4.08s3.564-1.36 6.828-4.082l3.838-3.198" style="stroke:var(--color1, #f8f8f8)"/></symbol>
</defs></svg>

