<svg aria-hidden="true" style="position: absolute; width: 0; height: 0; overflow: hidden;" version="1.1" xmlns="http://www.w3.org/2000/svg" xmlns:xlink="http://www.w3.org/1999/xlink">
<defs>
<symbol id="icon-black-star" viewBox="0 0 36 32">
<path   d="M18.684 0l0.002 13.484 7.092-11.998 0.588 0.346 0.588 0.348-6.959 11.789 12.463-7.641 0.715 1.164-12.217 7.498 14.84-1.598 0.074 0.68 0.072 0.678-14.766 1.598 13.873 4.68-0.436 1.293h-0.002l-1.213-0.41-12.855-4.33 9.877 9.914-0.967 0.965-10.096-10.125 3.607 13.020-1.314 0.363-3.65-13.148-3.65 13.148-0.658-0.182-0.080-0.023-0.576-0.158 3.605-13.020-10.094 10.125-0.967-0.965 9.875-9.914-14.068 4.74-0.436-1.293 13.871-4.68-14.764-1.598 0.072-0.678 0.074-0.68 14.838 1.598-12.215-7.498 0.715-1.164 12.461 7.641-6.957-11.789 0.588-0.348 0.588-0.346 7.090 11.998 0.004-13.484h1.367z"></path>
</symbol>
</defs>
</svg>
