<svg xmlns="http://www.w3.org/2000/svg" aria-hidden="true" style="position:absolute;width:0;height:0;overflow:hidden"><defs>
<symbol id="icon-red-star" viewBox="0 0 34 32"><path  stroke-width=".662" d="m17.301.323.003 14.227 7.038-12.612.289.162.289.161-7.001 12.561 12.438-8.075.181.277.18.277-12.374 8.042 14.954-1.705.076.657-14.936 1.71 14.058 5.022-.111.312-.112.312-14.107-5.031 9.977 10.604-.241.227-.241.226-10.035-10.656 3.61 13.796-.64.169-3.625-13.829-3.625 13.829-.64-.169 3.609-13.796L6.281 27.677l-.241-.226-.241-.227 9.976-10.604-14.106 5.031-.112-.312-.111-.312 14.057-5.022-14.935-1.71.076-.657 14.953 1.705L3.224 7.301l.18-.277.181-.277 12.437 8.075-7-12.561.578-.323 7.037 12.612.004-14.227h.663z" /></symbol>
<symbol id="telegram-icon" viewBox="0 0 32 32"><path  d="M31.628 15.876c0 8.631-6.997 15.628-15.628 15.628S.372 24.507.372 15.876 7.369.248 16 .248s15.628 6.997 15.628 15.628z" /><path  d="M21.305 10.712a1.028 1.028 0 0 1 1.03.139 1.032 1.032 0 0 1 .376.97l-1.547 9.385c-.15.905-1.143 1.424-1.974.973a39.698 39.698 0 0 1-2.654-1.565c-.464-.304-1.885-1.276-1.71-1.967.15-.591 2.538-2.814 3.902-4.135.536-.519.291-.819-.341-.341-1.57 1.186-4.092 2.989-4.925 3.496-.735.448-1.119.524-1.577.448a10.485 10.485 0 0 1-2.245-.617c-.855-.355-.814-1.531-.001-1.873l11.665-4.912z" style="fill:var(--color2, #f8f8f8)"/></symbol></defs></svg>