<svg xmlns="http://www.w3.org/2000/svg" aria-hidden="true" style="position:absolute;width:0;height:0;overflow:hidden"><defs>
<symbol id="icon-red-star" viewBox="0 0 34 32"><path  stroke-width=".662" d="m17.301.323.003 14.227 7.038-12.612.289.162.289.161-7.001 12.561 12.438-8.075.181.277.18.277-12.374 8.042 14.954-1.705.076.657-14.936 1.71 14.058 5.022-.111.312-.112.312-14.107-5.031 9.977 10.604-.241.227-.241.226-10.035-10.656 3.61 13.796-.64.169-3.625-13.829-3.625 13.829-.64-.169 3.609-13.796L6.281 27.677l-.241-.226-.241-.227 9.976-10.604-14.106 5.031-.112-.312-.111-.312 14.057-5.022-14.935-1.71.076-.657 14.953 1.705L3.224 7.301l.18-.277.181-.277 12.437 8.075-7-12.561.578-.323 7.037 12.612.004-14.227h.663z" /></symbol>
<symbol id="telegram-icon" viewBox="0 0 32 32"><path  d="M31.628 15.876c0 8.631-6.997 15.628-15.628 15.628S.372 24.507.372 15.876 7.369.248 16 .248s15.628 6.997 15.628 15.628z" /><path  d="M21.305 10.712a1.028 1.028 0 0 1 1.03.139 1.032 1.032 0 0 1 .376.97l-1.547 9.385c-.15.905-1.143 1.424-1.974.973a39.698 39.698 0 0 1-2.654-1.565c-.464-.304-1.885-1.276-1.71-1.967.15-.591 2.538-2.814 3.902-4.135.536-.519.291-.819-.341-.341-1.57 1.186-4.092 2.989-4.925 3.496-.735.448-1.119.524-1.577.448a10.485 10.485 0 0 1-2.245-.617c-.855-.355-.814-1.531-.001-1.873l11.665-4.912z" style="fill:var(--color2, #f8f8f8)"/></symbol>
<symbol id="icon-red-clock" viewBox="0 0 32 32"><path fill="#a0291a" d="M31.66 15.886c0 8.649-7.011 15.66-15.66 15.66S.34 24.535.34 15.886C.34 7.237 7.351.226 16 .226s15.66 7.011 15.66 15.66z" style="fill:var(--color1, #a0291a)"/><path fill="#f8f8f8" d="M16.477 15.491V11.12h-.953v4.766l3.37 3.37.674-.674-3.091-3.091zM16 23.829c-4.387 0-7.943-3.556-7.943-7.943S11.613 7.943 16 7.943s7.943 3.556 7.943 7.943-3.556 7.943-7.943 7.943zm0-.953a6.99 6.99 0 1 0 .001-13.98A6.99 6.99 0 0 0 16 22.876z" style="fill:var(--color2, #f8f8f8)"/></symbol>
<symbol id="icon-phone" viewBox="0 0 32 32"><path d="M32 16c0 8.837-7.163 16-16 16S0 24.837 0 16 7.163 0 16 0s16 7.163 16 16z" /><path fill="#f8f8f8" d="M11.016 14 11 13.954c-.36-1.031-.667-2.441-.667-3.287 0-.367.3-.667.667-.667h2a1.335 1.335 0 0 1 1.334 1.334v1.333A1.335 1.335 0 0 1 13 14.001h-.558a10.7 10.7 0 0 0 5.892 5.892v-.558a1.335 1.335 0 0 1 1.334-1.334h1.333a1.335 1.335 0 0 1 1.334 1.334v2c0 .3-.367.667-.667.667-1.15 0-2.293-.304-3.333-.667a12.1 12.1 0 0 1-7.317-7.333z" style="fill:var(--color2, #f8f8f8)"/></symbol>
<symbol id="icon-viber" viewBox="0 0 32 32"><path  d="M32 16c0 8.837-7.163 16-16 16S0 24.837 0 16 7.163 0 16 0s16 7.163 16 16z" /><path fill="#f8f8f8" d="M12.67 11.214a.68.68 0 0 0-.443.087h-.012c-.309.182-.588.41-.826.679-.198.229-.305.46-.334.683a.943.943 0 0 0 .034.392l.015.008c.223.655.513 1.284.868 1.877a11.08 11.08 0 0 0 1.676 2.291l.02.028.031.023.019.022.023.02a11.258 11.258 0 0 0 2.296 1.684c.953.519 1.532.764 1.879.867v.005a.967.967 0 0 0 .287.045c.296-.021.576-.142.796-.342.268-.238.495-.518.672-.829v-.006c.166-.314.11-.609-.13-.81-.48-.421-1-.794-1.553-1.114-.37-.201-.745-.079-.897.124l-.324.409c-.167.203-.469.175-.469.175l-.008.005c-2.254-.575-2.856-2.858-2.856-2.858s-.028-.31.181-.469l.406-.327c.195-.158.33-.533.121-.903a9.884 9.884 0 0 0-1.112-1.552.615.615 0 0 0-.363-.217zm3.809-.992a.413.413 0 1 0 0 .826c1.043 0 1.91.341 2.596.995.352.357.627.781.807 1.245s.263.961.242 1.458a.414.414 0 0 0 .826.034 4.453 4.453 0 0 0-1.292-3.321l-.008-.008c-.851-.813-1.927-1.227-3.17-1.227z" style="fill:var(--color2, #f8f8f8)"/><path fill="#f8f8f8" d="M16.45 11.579a.41.41 0 0 0-.413.413.415.415 0 0 0 .413.413h.014c.753.054 1.301.305 1.685.716.394.424.598.952.582 1.604a.415.415 0 0 0 .403.423.411.411 0 0 0 .423-.403c.02-.856-.256-1.595-.802-2.184v-.002c-.559-.599-1.326-.916-2.248-.978l-.014-.002-.041.001z" style="fill:var(--color2, #f8f8f8)"/><path fill="#f8f8f8" d="M16.434 12.962a.415.415 0 0 0-.307.099.42.42 0 0 0-.117.453.405.405 0 0 0 .22.235.423.423 0 0 0 .161.035c.345.018.565.122.704.262s.244.366.262.718a.41.41 0 0 0 .272.381.41.41 0 0 0 .452-.117.424.424 0 0 0 .1-.307c-.026-.495-.182-.933-.499-1.255-.319-.322-.754-.479-1.248-.505z" style="fill:var(--color2, #f8f8f8)"/><path fill="#f8f8f8" d="M11.928 8.063a18.287 18.287 0 0 1 7.977 0l.28.062a4.251 4.251 0 0 1 3.196 3.106 16.266 16.266 0 0 1 0 8.006 4.26 4.26 0 0 1-3.196 3.106l-.281.062a18.34 18.34 0 0 1-5.016.412l-2.19 1.959a.622.622 0 0 1-.887-.063.611.611 0 0 1-.137-.296l-.362-2.164a4.262 4.262 0 0 1-2.86-3.016 16.266 16.266 0 0 1 0-8.006 4.26 4.26 0 0 1 3.196-3.106l.28-.062zm7.707 1.208a17.057 17.057 0 0 0-7.437 0l-.281.063a3.024 3.024 0 0 0-2.265 2.202 15.011 15.011 0 0 0 0 7.397 3.027 3.027 0 0 0 2.266 2.202l.074.016a.62.62 0 0 1 .475.501l.243 1.451 1.545-1.383a.611.611 0 0 1 .456-.157 17.11 17.11 0 0 0 4.923-.367l.28-.063a3.027 3.027 0 0 0 2.266-2.202c.616-2.427.616-4.97 0-7.397a3.027 3.027 0 0 0-2.266-2.202l-.28-.063z" style="fill:var(--color2, #f8f8f8)"/></symbol>
<symbol id="icon-arrow" viewBox="0 0 32 32"><path fill="none" stroke="#ffc300" stroke-linecap="round" stroke-linejoin="round" stroke-width="2.133" d="M2.143 29.857 29.858 2.142m0 0H8.302m21.556 0v21.556" style="stroke:var(--color5, #ffc300)"/></symbol>
<symbol id="icon-faq" viewBox="0 0 32 32"><path fill="none" stroke="#a0291a" stroke-linecap="round" stroke-linejoin="round" stroke-width="1.641" d="M7.795 20.103 16 11.898l8.205 8.205" style="stroke:var(--color1, #a0291a)"/></symbol>
</defs></svg>