<svg width="201" height="238" viewBox="0 0 201 238" fill="none" xmlns="http://www.w3.org/2000/svg">
<mask id="path-1-inside-1_236_5094" fill="white">
<path d="M151.419 5.15039C151.419 27.7938 169.776 46.1501 192.419 46.1504C196.646 46.1504 200.073 49.5773 200.073 53.8047V196.273C200.073 218.917 181.717 237.273 159.073 237.273H41C18.3563 237.273 0 218.917 0 196.273V41.7266C0 19.0829 18.3563 0.726562 41 0.726562H146.995C149.438 0.726562 151.419 2.70718 151.419 5.15039Z"/>
</mask>
<path d="M151.419 5.15039C151.419 27.7938 169.776 46.1501 192.419 46.1504C196.646 46.1504 200.073 49.5773 200.073 53.8047V196.273C200.073 218.917 181.717 237.273 159.073 237.273H41C18.3563 237.273 0 218.917 0 196.273V41.7266C0 19.0829 18.3563 0.726562 41 0.726562H146.995C149.438 0.726562 151.419 2.70718 151.419 5.15039Z" fill="#F8F8F8"/>
<path d="M151.419 5.15039L149.919 5.1504C149.919 28.6222 168.947 47.6501 192.419 47.6504L192.419 46.1504L192.419 44.6504C170.604 44.6501 152.919 26.9653 152.919 5.15038L151.419 5.15039ZM200.073 53.8047H198.573V196.273H200.073H201.573V53.8047H200.073ZM200.073 196.273H198.573C198.573 218.089 180.888 235.773 159.073 235.773V237.273V238.773C182.545 238.773 201.573 219.746 201.573 196.273H200.073ZM159.073 237.273V235.773H41V237.273V238.773H159.073V237.273ZM41 237.273V235.773C19.1848 235.773 1.5 218.089 1.5 196.273H0H-1.5C-1.5 219.746 17.5279 238.773 41 238.773V237.273ZM0 196.273H1.5V41.7266H0H-1.5V196.273H0ZM0 41.7266H1.5C1.5 19.9113 19.1848 2.22656 41 2.22656V0.726562V-0.773438C17.5279 -0.773438 -1.5 18.2545 -1.5 41.7266H0ZM41 0.726562V2.22656H146.995V0.726562V-0.773438H41V0.726562ZM146.995 0.726562V2.22656C148.61 2.22656 149.919 3.53561 149.919 5.15039H151.419H152.919C152.919 1.87875 150.267 -0.773438 146.995 -0.773438V0.726562ZM192.419 46.1504V47.6504C195.818 47.6504 198.573 50.4058 198.573 53.8047H200.073H201.573C201.573 48.7489 197.475 44.6504 192.419 44.6504V46.1504Z" fill="#F8F8F8" mask="url(#path-1-inside-1_236_5094)"/>
</svg>
